<svg width="136" height="41" viewBox="0 0 136 41" fill="none" xmlns="http://www.w3.org/2000/svg">
<path d="M3.98974 13.0528L16.6776 0.364932C21.4743 5.3551 21.4144 13.2893 16.4978 18.2059L3.80995 30.8937C-0.986803 25.9035 -0.926874 17.9694 3.98974 13.0528Z" fill="#168AF9" stroke="#168AF9" stroke-width="0.513556"/>
<path d="M35.0181 22.4761L47.7059 9.78827C52.5026 14.7784 52.4427 22.7126 47.5261 27.6292L34.8383 40.317C30.0415 35.3269 30.1014 27.3927 35.0181 22.4761Z" fill="#168AF9" stroke="#168AF9" stroke-width="0.513556"/>
<path d="M22.9334 31.9962C18.0168 36.9128 10.0826 36.9727 5.09247 32.176L28.5829 8.68554C33.4995 3.76893 41.4337 3.709 46.4239 8.50576L22.9334 31.9962Z" fill="#168AF9" stroke="#168AF9" stroke-width="0.513556"/>
<path d="M96.331 30.6495H91.8231L86.6749 15.7103L81.5098 30.6368H77.002L84.6443 9.73633H88.7056L96.331 30.6495Z" fill="#333333"/>
<path d="M115.609 18.2885V27.7255C114.084 29.7857 110.351 31.2771 106.589 30.8895C100.619 30.2617 96.7939 26.2342 96.7939 20.2307C96.7939 14.2272 100.678 9.90051 106.741 9.5719C110.023 9.42023 113.06 10.3766 114.981 11.8975L112.921 14.796C111.069 13.7553 108.946 13.2972 106.829 13.4815C103.425 13.5995 100.855 16.4095 100.855 20.2223C100.855 24.035 103.156 26.4027 106.918 26.9082C108.978 27.1779 110.709 26.7903 111.784 25.9856V18.2885H115.609Z" fill="#333333"/>
<path d="M136 30.6495H131.492L126.327 15.7103L121.157 30.6368H116.649L124.296 9.73633H128.349L136 30.6495Z" fill="#333333"/>
<path d="M58.1924 28.7088L59.839 25.0775C61.8784 26.4759 64.2942 27.233 66.7726 27.2504C69.651 27.2504 70.8235 26.2964 70.8235 25.0187C70.8235 21.1142 58.6114 23.7956 58.6114 16.0497C58.6114 12.5066 61.4899 9.55615 67.4625 9.55615C70.0997 9.55615 72.8003 10.1824 74.7517 11.4012L73.2532 15.0662C71.488 14.0303 69.4829 13.4656 67.4329 13.427C64.5503 13.427 63.4412 14.503 63.4412 15.8101C63.4412 19.6558 75.6533 17.0037 75.6533 24.6614C75.6533 28.1456 72.741 31.1255 66.7641 31.1255C63.4116 31.1255 60.0506 30.1504 58.1924 28.7088Z" fill="#333333"/>
<rect x="81.3027" y="24.4492" width="10.7847" height="3.08133" fill="#333333"/>
<rect x="120.847" y="24.4492" width="10.7847" height="3.08133" fill="#333333"/>
</svg>
